<svg xmlns="http://www.w3.org/2000/svg" viewBox="0 0 294.36 40.61"><defs><style>.cls-1{fill:#fdba12;}.cls-2{fill:#1d1d1b;}</style></defs><title>Ativo 1</title><g id="Camada_2" data-name="Camada 2"><g id="Layer_1" data-name="Layer 1"><path class="cls-1" d="M6,17a.76.76,0,1,1-.76-.76A.76.76,0,0,1,6,17Z"/><path class="cls-1" d="M9.23,8.75a.61.61,0,1,0,.6.6A.6.6,0,0,0,9.23,8.75ZM16,5a.85.85,0,1,0,.85.85A.86.86,0,0,0,16,5ZM9.23,8.75a.61.61,0,1,0,.6.6A.6.6,0,0,0,9.23,8.75ZM16,5a.85.85,0,1,0,.85.85A.86.86,0,0,0,16,5ZM9.23,8.75a.61.61,0,1,0,.6.6A.6.6,0,0,0,9.23,8.75Zm4.95,8.34a1.15,1.15,0,1,0,1.15,1.15A1.15,1.15,0,0,0,14.18,17.09ZM16,5a.85.85,0,1,0,.85.85A.86.86,0,0,0,16,5Zm7.54,7.1a1.15,1.15,0,1,0,1.15,1.15A1.15,1.15,0,0,0,23.55,12.11Zm0,0a1.15,1.15,0,1,0,1.15,1.15A1.15,1.15,0,0,0,23.55,12.11Zm-9.37,5a1.15,1.15,0,1,0,1.15,1.15A1.15,1.15,0,0,0,14.18,17.09ZM9.23,8.75a.61.61,0,1,0,.6.6A.6.6,0,0,0,9.23,8.75ZM16,5a.85.85,0,1,0,.85.85A.86.86,0,0,0,16,5ZM9.23,8.75a.61.61,0,1,0,.6.6A.6.6,0,0,0,9.23,8.75Zm4.95,8.34a1.15,1.15,0,1,0,1.15,1.15A1.15,1.15,0,0,0,14.18,17.09ZM16,5a.85.85,0,1,0,.85.85A.86.86,0,0,0,16,5Zm7.54,7.1a1.15,1.15,0,1,0,1.15,1.15A1.15,1.15,0,0,0,23.55,12.11Zm0,0a1.15,1.15,0,1,0,1.15,1.15A1.15,1.15,0,0,0,23.55,12.11Zm-9.37,5a1.15,1.15,0,1,0,1.15,1.15A1.15,1.15,0,0,0,14.18,17.09ZM9.23,8.75a.61.61,0,1,0,.6.6A.6.6,0,0,0,9.23,8.75ZM16,5a.85.85,0,1,0,.85.85A.86.86,0,0,0,16,5ZM9.23,8.75a.61.61,0,1,0,.6.6A.6.6,0,0,0,9.23,8.75Zm4.95,8.34a1.15,1.15,0,1,0,1.15,1.15A1.15,1.15,0,0,0,14.18,17.09ZM16,5a.85.85,0,1,0,.85.85A.86.86,0,0,0,16,5Zm7.54,7.1a1.15,1.15,0,1,0,1.15,1.15A1.15,1.15,0,0,0,23.55,12.11Zm0,0a1.15,1.15,0,1,0,1.15,1.15A1.15,1.15,0,0,0,23.55,12.11Zm-9.37,5a1.15,1.15,0,1,0,1.15,1.15A1.15,1.15,0,0,0,14.18,17.09ZM9.23,8.75a.61.61,0,1,0,.6.6A.6.6,0,0,0,9.23,8.75ZM16,5a.85.85,0,1,0,.85.85A.86.86,0,0,0,16,5ZM9.23,8.75a.61.61,0,1,0,.6.6A.6.6,0,0,0,9.23,8.75Zm4.95,8.34a1.15,1.15,0,1,0,1.15,1.15A1.15,1.15,0,0,0,14.18,17.09ZM16,5a.85.85,0,1,0,.85.85A.86.86,0,0,0,16,5Zm7.54,7.1a1.15,1.15,0,1,0,1.15,1.15A1.15,1.15,0,0,0,23.55,12.11Zm0,0a1.15,1.15,0,1,0,1.15,1.15A1.15,1.15,0,0,0,23.55,12.11Zm-9.37,5a1.15,1.15,0,1,0,1.15,1.15A1.15,1.15,0,0,0,14.18,17.09ZM9.23,8.75a.61.61,0,1,0,.6.6A.6.6,0,0,0,9.23,8.75ZM16,5a.85.85,0,1,0,.85.85A.86.86,0,0,0,16,5ZM9.23,8.75a.61.61,0,1,0,.6.6A.6.6,0,0,0,9.23,8.75Zm4.95,8.34a1.15,1.15,0,1,0,1.15,1.15A1.15,1.15,0,0,0,14.18,17.09ZM16,5a.85.85,0,1,0,.85.85A.86.86,0,0,0,16,5Zm7.54,7.1a1.15,1.15,0,1,0,1.15,1.15A1.15,1.15,0,0,0,23.55,12.11Zm0,0a1.15,1.15,0,1,0,1.15,1.15A1.15,1.15,0,0,0,23.55,12.11Zm-9.37,5a1.15,1.15,0,1,0,1.15,1.15A1.15,1.15,0,0,0,14.18,17.09ZM9.23,8.75a.61.61,0,1,0,.6.6A.6.6,0,0,0,9.23,8.75ZM16,5a.85.85,0,1,0,.85.85A.86.86,0,0,0,16,5ZM9.23,8.75a.61.61,0,1,0,.6.6A.6.6,0,0,0,9.23,8.75Zm4.95,8.34a1.15,1.15,0,1,0,1.15,1.15A1.15,1.15,0,0,0,14.18,17.09ZM16,5a.85.85,0,1,0,.85.85A.86.86,0,0,0,16,5Zm7.54,7.1a1.15,1.15,0,1,0,1.15,1.15A1.15,1.15,0,0,0,23.55,12.11Zm0,0a1.15,1.15,0,1,0,1.15,1.15A1.15,1.15,0,0,0,23.55,12.11Zm-9.37,5a1.15,1.15,0,1,0,1.15,1.15A1.15,1.15,0,0,0,14.18,17.09ZM9.23,8.75a.61.61,0,1,0,.6.6A.6.6,0,0,0,9.23,8.75ZM16,5a.85.85,0,1,0,.85.85A.86.86,0,0,0,16,5Zm8.82-5H4.9A4.91,4.91,0,0,0,0,4.91V24.84a4.91,4.91,0,0,0,4.9,4.9H24.83a4.91,4.91,0,0,0,4.91-4.9V4.91A4.91,4.91,0,0,0,24.83,0ZM16,2.59A3.46,3.46,0,0,1,19.46,6a3.7,3.7,0,0,1-.64,2c-.62.92-2,4.53-2.81,4.53S13.77,8.89,13.17,8a3.12,3.12,0,0,1-.61-2A3.45,3.45,0,0,1,16,2.59ZM7.79,19C7.24,19.79,6,23,5.27,23s-2-3.31-2.54-4.1a2.82,2.82,0,0,1-.55-1.76,3.09,3.09,0,0,1,6.18,0A3.32,3.32,0,0,1,7.79,19Zm1.44-4.83c-.58,0-1.59-2.64-2-3.26a2.19,2.19,0,0,1-.44-1.4,2.46,2.46,0,0,1,4.91,0,2.67,2.67,0,0,1-.45,1.44C10.79,11.57,9.8,14.14,9.23,14.14ZM18,21.21c-.83,1.24-2.71,6.12-3.8,6.12s-3-5-3.83-6.2a4.13,4.13,0,0,1-.83-2.65,4.66,4.66,0,1,1,9.32,0A5,5,0,0,1,18,21.21Zm9.37-5c-.83,1.23-2.71,6.12-3.8,6.12s-3-5-3.83-6.2a4.13,4.13,0,0,1-.83-2.65,4.66,4.66,0,0,1,9.32,0A5.07,5.07,0,0,1,27.35,16.23Zm-3.8-4.12a1.15,1.15,0,1,0,1.15,1.15A1.15,1.15,0,0,0,23.55,12.11ZM16,6.71a.85.85,0,1,0-.85-.85A.85.85,0,0,0,16,6.71ZM14.18,17.09a1.15,1.15,0,1,0,1.15,1.15A1.15,1.15,0,0,0,14.18,17.09ZM9.23,8.75a.61.61,0,1,0,.6.6A.6.6,0,0,0,9.23,8.75ZM16,5a.85.85,0,1,0,.85.85A.86.86,0,0,0,16,5ZM9.23,8.75a.61.61,0,1,0,.6.6A.6.6,0,0,0,9.23,8.75Zm4.95,8.34a1.15,1.15,0,1,0,1.15,1.15A1.15,1.15,0,0,0,14.18,17.09Zm9.37-5a1.15,1.15,0,1,0,1.15,1.15A1.15,1.15,0,0,0,23.55,12.11Zm0,0a1.15,1.15,0,1,0,1.15,1.15A1.15,1.15,0,0,0,23.55,12.11ZM16,5a.85.85,0,1,0,.85.85A.86.86,0,0,0,16,5ZM14.18,17.09a1.15,1.15,0,1,0,1.15,1.15A1.15,1.15,0,0,0,14.18,17.09ZM9.23,8.75a.61.61,0,1,0,.6.6A.6.6,0,0,0,9.23,8.75ZM16,5a.85.85,0,1,0,.85.85A.86.86,0,0,0,16,5ZM9.23,8.75a.61.61,0,1,0,.6.6A.6.6,0,0,0,9.23,8.75Zm4.95,8.34a1.15,1.15,0,1,0,1.15,1.15A1.15,1.15,0,0,0,14.18,17.09Zm9.37-5a1.15,1.15,0,1,0,1.15,1.15A1.15,1.15,0,0,0,23.55,12.11Zm0,0a1.15,1.15,0,1,0,1.15,1.15A1.15,1.15,0,0,0,23.55,12.11ZM16,5a.85.85,0,1,0,.85.85A.86.86,0,0,0,16,5ZM14.18,17.09a1.15,1.15,0,1,0,1.15,1.15A1.15,1.15,0,0,0,14.18,17.09ZM9.23,8.75a.61.61,0,1,0,.6.6A.6.6,0,0,0,9.23,8.75ZM16,5a.85.85,0,1,0,.85.85A.86.86,0,0,0,16,5ZM9.23,8.75a.61.61,0,1,0,.6.6A.6.6,0,0,0,9.23,8.75Zm4.95,8.34a1.15,1.15,0,1,0,1.15,1.15A1.15,1.15,0,0,0,14.18,17.09Zm9.37-5a1.15,1.15,0,1,0,1.15,1.15A1.15,1.15,0,0,0,23.55,12.11Zm0,0a1.15,1.15,0,1,0,1.15,1.15A1.15,1.15,0,0,0,23.55,12.11ZM16,5a.85.85,0,1,0,.85.85A.86.86,0,0,0,16,5ZM14.18,17.09a1.15,1.15,0,1,0,1.15,1.15A1.15,1.15,0,0,0,14.18,17.09ZM9.23,8.75a.61.61,0,1,0,.6.6A.6.6,0,0,0,9.23,8.75ZM16,5a.85.85,0,1,0,.85.85A.86.86,0,0,0,16,5ZM9.23,8.75a.61.61,0,1,0,.6.6A.6.6,0,0,0,9.23,8.75Zm4.95,8.34a1.15,1.15,0,1,0,1.15,1.15A1.15,1.15,0,0,0,14.18,17.09Zm9.37-5a1.15,1.15,0,1,0,1.15,1.15A1.15,1.15,0,0,0,23.55,12.11Zm0,0a1.15,1.15,0,1,0,1.15,1.15A1.15,1.15,0,0,0,23.55,12.11ZM16,5a.85.85,0,1,0,.85.85A.86.86,0,0,0,16,5ZM14.18,17.09a1.15,1.15,0,1,0,1.15,1.15A1.15,1.15,0,0,0,14.18,17.09ZM9.23,8.75a.61.61,0,1,0,.6.6A.6.6,0,0,0,9.23,8.75ZM16,5a.85.85,0,1,0,.85.85A.86.86,0,0,0,16,5ZM9.23,8.75a.61.61,0,1,0,.6.6A.6.6,0,0,0,9.23,8.75Zm4.95,8.34a1.15,1.15,0,1,0,1.15,1.15A1.15,1.15,0,0,0,14.18,17.09Zm9.37-5a1.15,1.15,0,1,0,1.15,1.15A1.15,1.15,0,0,0,23.55,12.11Zm0,0a1.15,1.15,0,1,0,1.15,1.15A1.15,1.15,0,0,0,23.55,12.11ZM16,5a.85.85,0,1,0,.85.85A.86.86,0,0,0,16,5ZM14.18,17.09a1.15,1.15,0,1,0,1.15,1.15A1.15,1.15,0,0,0,14.18,17.09ZM9.23,8.75a.61.61,0,1,0,.6.6A.6.6,0,0,0,9.23,8.75ZM16,5a.85.85,0,1,0,.85.85A.86.86,0,0,0,16,5ZM9.23,8.75a.61.61,0,1,0,.6.6A.6.6,0,0,0,9.23,8.75Zm4.95,8.34a1.15,1.15,0,1,0,1.15,1.15A1.15,1.15,0,0,0,14.18,17.09ZM16,5a.85.85,0,1,0,.85.85A.86.86,0,0,0,16,5ZM14.18,17.09a1.15,1.15,0,1,0,1.15,1.15A1.15,1.15,0,0,0,14.18,17.09ZM9.23,8.75a.61.61,0,1,0,.6.6A.6.6,0,0,0,9.23,8.75Zm0,0a.61.61,0,1,0,.6.6A.6.6,0,0,0,9.23,8.75Zm0,0a.61.61,0,1,0,.6.6A.6.6,0,0,0,9.23,8.75Z"/><path class="cls-2" d="M6.42,40.52V34.94h2.9v.86H7.59v1.43H9.24v.85H7.59v2.44Z"/><path class="cls-2" d="M9.73,40.52V34.94h1.16v4.65h1.75v.93Z"/><path class="cls-2" d="M13,40.52V34.94h3v.86H14.16v1.37h1.73V38H14.16v1.63H16.1v.86Z"/><path class="cls-2" d="M16.7,40.52V34.94h3v.86H17.86v1.37h1.73V38H17.86v1.63H19.8v.86Z"/><path class="cls-2" d="M23.72,34.94v.93h-1.3v4.65H21.26V35.87H20v-.93Z"/><path class="cls-1" d="M90.11,0H70.19a4.91,4.91,0,0,0-4.91,4.91V24.84a4.91,4.91,0,0,0,4.91,4.9H90.11A4.91,4.91,0,0,0,95,24.84V4.91A4.91,4.91,0,0,0,90.11,0ZM92,21.54a.38.38,0,0,1-.3.16h-9.3s0,0,0,0H68.61s-.34,0-.46-.21a.55.55,0,0,1,.08-.51l6.08-10.53s.28-.52.63-.52a1.06,1.06,0,0,1,.81.55l.74,1.2,3.1-5.37s.37-.71.86-.71.77.71.77.71l4.72,8.16.55-1s.29-.38.55-.38.53.38.53.38L92,21.17S92.12,21.29,92,21.54Z"/><path class="cls-2" d="M70.27,34.94v.93H69v4.65H67.8V35.87H66.51v-.93Z"/><path class="cls-2" d="M70.65,40.52V34.94h3v.86H71.82v1.37h1.73V38H71.82v1.63h1.93v.86Z"/><path class="cls-2" d="M75.5,40.52H74.33V34.94h2.16c.79,0,1.3.51,1.3,1.46a1.21,1.21,0,0,1-1,1.37h0a1,1,0,0,1,1,1.1,7.52,7.52,0,0,0,.13,1.64H76.76a2.48,2.48,0,0,1-.13-1.08c0-.67.07-1.23-.83-1.23h-.3Zm0-3.17H76c.46,0,.59-.46.59-.82,0-.53-.22-.73-.59-.73H75.5Z"/><path class="cls-2" d="M79.63,40.52H78.47V34.94h2.15c.8,0,1.31.51,1.31,1.46a1.21,1.21,0,0,1-1,1.37h0a1,1,0,0,1,1,1.1A7.48,7.48,0,0,0,82,40.52H80.89a2.63,2.63,0,0,1-.12-1.08c0-.67.06-1.23-.83-1.23h-.31Zm0-3.17h.52c.46,0,.6-.46.6-.82,0-.53-.23-.73-.6-.73h-.52Z"/><path class="cls-2" d="M82.2,40.52l1.55-5.58h1.53l1.52,5.58H85.57l-.31-1.24H83.67l-.32,1.24ZM84.45,36h0l-.53,2.4H85Z"/><path class="cls-2" d="M87.19,40.52V34.94h1.17v5.58Z"/><path class="cls-2" d="M89.19,40.52V34.94h1.57l1.49,3.86h0V34.94h1.09v5.58H91.81l-1.52-4.08h0v4.08Z"/><path class="cls-1" d="M155.06,0H135.14a4.91,4.91,0,0,0-4.91,4.91V24.84a4.91,4.91,0,0,0,4.91,4.9h19.92a4.91,4.91,0,0,0,4.91-4.9V4.91A4.91,4.91,0,0,0,155.06,0Zm-9.87,24.26a2.69,2.69,0,0,1-2.57-2.79,2.58,2.58,0,1,1,5.14,0A2.69,2.69,0,0,1,145.19,24.26Zm5.9-5.72a.65.65,0,0,1-.71,0,7.28,7.28,0,0,0-5.19-1.91,7.8,7.8,0,0,0-5.2,1.92.43.43,0,0,1-.54.05c-.26-.25-.22-.49-.17-.56a8.24,8.24,0,0,1,5.92-2.18,8.41,8.41,0,0,1,5.91,2.17A.41.41,0,0,1,151.09,18.54Zm1.82-2.11a.82.82,0,0,1-.93,0,9.57,9.57,0,0,0-6.8-2.49,10.14,10.14,0,0,0-6.81,2.51.56.56,0,0,1-.71.06c-.34-.32-.29-.64-.22-.73a10.82,10.82,0,0,1,7.76-2.86A11,11,0,0,1,153,15.79.55.55,0,0,1,152.91,16.43Zm1.82-2.22a1,1,0,0,1-1.15,0,11.81,11.81,0,0,0-8.41-3.09,12.57,12.57,0,0,0-8.42,3.11.7.7,0,0,1-.88.08c-.43-.39-.36-.79-.27-.91a13.4,13.4,0,0,1,9.6-3.54,13.65,13.65,0,0,1,9.58,3.53A.67.67,0,0,1,154.73,14.21Zm2.19-2.75a1.28,1.28,0,0,1-1.42,0,14.45,14.45,0,0,0-10.33-3.8,15.44,15.44,0,0,0-10.36,3.82.86.86,0,0,1-1.09.09c-.52-.48-.44-1-.33-1.11a16.44,16.44,0,0,1,11.8-4.35A16.8,16.8,0,0,1,157,10.48.83.83,0,0,1,156.92,11.46Z"/><path class="cls-2" d="M133.77,34.94h1.95c1.53,0,1.81,1,1.81,2.76,0,.86.14,2.82-1.86,2.82h-1.9Zm1.17,4.72h.56c.71,0,.85-.53.85-1.93,0-1,0-1.93-.81-1.93h-.6Z"/><path class="cls-2" d="M138.31,40.52V34.94h3v.86h-1.87v1.37h1.73V38h-1.73v1.63h1.94v.86Z"/><path class="cls-2" d="M145.34,34.94v.93H144v4.65h-1.17V35.87h-1.29v-.93Z"/><path class="cls-2" d="M145.72,40.52V34.94h3v.86h-1.87v1.37h1.73V38h-1.73v1.63h1.94v.86Z"/><path class="cls-2" d="M149.37,37.73c0-1.48,0-2.88,1.92-2.88,1.19,0,1.67.66,1.63,1.85h-1.15c0-.74-.13-1-.48-1-.65,0-.74.62-.74,2s.09,2.05.74,2.05.52-.7.54-1.14H153c0,1.49-.6,2-1.69,2C149.37,40.61,149.37,39.19,149.37,37.73Z"/><path class="cls-2" d="M156.88,34.94v.93h-1.29v4.65h-1.17V35.87h-1.3v-.93Z"/><path class="cls-1" d="M220,0H200.09a4.91,4.91,0,0,0-4.91,4.91V24.84a4.91,4.91,0,0,0,4.91,4.9H220a4.91,4.91,0,0,0,4.91-4.9V4.91A4.91,4.91,0,0,0,220,0Zm-.35,17.14a1.5,1.5,0,0,1-1.51,1.51h-4.32V23a1.52,1.52,0,0,1-1.51,1.51h-4.54A1.52,1.52,0,0,1,206.27,23V18.65H202a1.5,1.5,0,0,1-1.51-1.51V12.61A1.51,1.51,0,0,1,202,11.09h4.32V6.77a1.52,1.52,0,0,1,1.51-1.51h4.54a1.52,1.52,0,0,1,1.51,1.51v4.32h4.32a1.51,1.51,0,0,1,1.51,1.52Z"/><path class="cls-2" d="M200.82,37.17V34.94H202v5.58h-1.16V38h-1.34v2.49h-1.16V34.94h1.16v2.23Z"/><path class="cls-2" d="M202.84,40.52V34.94h3v.86H204v1.37h1.73V38H204v1.63h1.94v.86Z"/><path class="cls-2" d="M206.12,40.52l1.54-5.58h1.54l1.51,5.58h-1.23l-.31-1.24h-1.58l-.32,1.24Zm2.24-4.5h0l-.53,2.4h1.11Z"/><path class="cls-2" d="M211.11,40.52V34.94h1.17v4.65H214v.93Z"/><path class="cls-2" d="M217.7,34.94v.93h-1.3v4.65h-1.17V35.87h-1.3v-.93Z"/><path class="cls-2" d="M220.62,37.17V34.94h1.17v5.58h-1.17V38h-1.34v2.49h-1.16V34.94h1.16v2.23Z"/><path class="cls-1" d="M287,0H267.08a4.9,4.9,0,0,0-4.9,4.91V24.83a4.9,4.9,0,0,0,4.9,4.91H287a4.9,4.9,0,0,0,4.9-4.91V4.91A4.9,4.9,0,0,0,287,0Zm-7.92,25.37a.12.12,0,0,1-.13.12h-3.83a.12.12,0,0,1-.13-.12v-.75a.13.13,0,0,1,.13-.13h1c.15,0,.12-.21.12-.21V17.1a.21.21,0,0,1,.21-.21h1.23a.21.21,0,0,1,.21.21v7.18s0,.21.15.21H279a.13.13,0,0,1,.13.13Zm-3.15-11.84a1.18,1.18,0,1,1,1.17,1.17A1.18,1.18,0,0,1,275.94,13.53ZM280,18.32a1,1,0,0,1,0-1.38,4.24,4.24,0,1,0-5.77,0,1,1,0,0,1-.06,1.37,1.15,1.15,0,0,1-.87.4,1,1,0,0,1-.68-.23,6.32,6.32,0,1,1,9.09-.32A1.35,1.35,0,0,1,280,18.32Zm4.28,3.16a.57.57,0,0,1-.82.06.6.6,0,0,1,.1-.84,9.38,9.38,0,1,0-12.8.21.48.48,0,0,1-.07.66.53.53,0,0,1-.4.17.47.47,0,0,1-.31-.1,10.38,10.38,0,1,1,14.3-.16Z"/><path class="cls-2" d="M259.72,37.73c0-1.48,0-2.88,1.92-2.88,1.19,0,1.67.66,1.62,1.85h-1.14c0-.74-.13-1-.48-1-.65,0-.74.62-.74,2s.09,2.05.74,2.05.52-.7.53-1.14h1.16c0,1.49-.6,2-1.69,2C259.72,40.61,259.72,39.19,259.72,37.73Z"/><path class="cls-2" d="M263.86,37.73c0-1.48,0-2.88,1.92-2.88s1.92,1.4,1.92,2.88,0,2.88-1.92,2.88S263.86,39.19,263.86,37.73Zm2.66,0c0-1.43-.09-2-.74-2s-.74.62-.74,2,.08,2.05.74,2.05S266.52,39.16,266.52,37.73Z"/><path class="cls-2" d="M268.45,40.52V34.94h1.88l.87,3.79h0l.93-3.79H274v5.58h-1.13v-4.3h0l-1.07,4.3h-1.11l-1-4.3h0v4.3Z"/><path class="cls-2" d="M274.72,40.52V34.94h1.88l.87,3.79h0l.92-3.79h1.82v5.58h-1.14v-4.3h0L278,40.52h-1.11l-1-4.3h0v4.3Z"/><path class="cls-2" d="M280.59,40.52l1.55-5.58h1.54l1.51,5.58H284l-.31-1.24h-1.59l-.31,1.24Zm2.25-4.5h0l-.54,2.4h1.12Z"/><path class="cls-2" d="M285.59,40.52V34.94h1.57l1.49,3.86h0V34.94h1.09v5.58h-1.54l-1.52-4.08h0v4.08Z"/><path class="cls-2" d="M290.6,34.94h1.94c1.53,0,1.82,1,1.82,2.76,0,.86.13,2.82-1.86,2.82h-1.9Zm1.16,4.72h.57c.71,0,.85-.53.85-1.93,0-1,0-1.93-.82-1.93h-.6Z"/></g></g></svg>