<svg xmlns="http://www.w3.org/2000/svg" viewBox="0 0 6.19 6.19"><defs><style>.cls-1{fill:#0575b4;}</style></defs><title>linkedin</title><g id="Camada_2" data-name="Camada 2"><g id="Layer_1" data-name="Layer 1"><path class="cls-1" d="M5.73,0H.46A.45.45,0,0,0,0,.44v5.3a.46.46,0,0,0,.46.45H5.73a.46.46,0,0,0,.46-.45V.44A.45.45,0,0,0,5.73,0M1.88,5.18H.94V2.39h.94ZM1.41,2h0a.48.48,0,1,1,0-1,.49.49,0,0,1,.53.48A.49.49,0,0,1,1.41,2M5.24,5.18H4.31V3.68c0-.37-.14-.63-.47-.63a.5.5,0,0,0-.48.34.54.54,0,0,0,0,.23V5.18H2.39s0-2.53,0-2.8h.94v.4a.91.91,0,0,1,.84-.46c.61,0,1.07.4,1.07,1.26ZM3.32,2.79h0Z"/></g></g></svg>