<svg xmlns="http://www.w3.org/2000/svg" viewBox="0 0 6.59 6.59"><defs><style>.cls-1{fill:#50abf1;}.cls-2{fill:#fff;}</style></defs><title>twitter</title><g id="Camada_2" data-name="Camada 2"><g id="Layer_1" data-name="Layer 1"><rect class="cls-1" width="6.59" height="6.59"/><path class="cls-2" d="M.87,4.88A2.84,2.84,0,0,0,5.23,2.49s0-.08,0-.12a2.2,2.2,0,0,0,.5-.51A2.41,2.41,0,0,1,5.15,2h0a1.05,1.05,0,0,0,.44-.55s-.21.1-.49.2L5,1.7a1,1,0,0,0-1.73.68.85.85,0,0,0,0,.23,3,3,0,0,1-2-1A1,1,0,0,0,1.5,2.89a1.11,1.11,0,0,1-.43-.12.94.94,0,0,0,.79,1,.84.84,0,0,1-.44,0,1,1,0,0,0,.91.7,1.9,1.9,0,0,1-1.46.41Z"/></g></g></svg>