<svg xmlns="http://www.w3.org/2000/svg" xmlns:xlink="http://www.w3.org/1999/xlink" viewBox="0 0 8.46 5.95"><defs><style>.cls-1{fill:none;}.cls-2{clip-path:url(#clip-path);}.cls-3{fill:#3c1312;}.cls-4{clip-path:url(#clip-path-2);}.cls-5{fill:url(#linear-gradient);}</style><clipPath id="clip-path"><rect class="cls-1" x="3.36" y="1.69" width="2.28" height="1.34"/></clipPath><clipPath id="clip-path-2"><path class="cls-1" d="M3.36,1.69l2.28,1.2L3.36,4.07ZM4.23,0s-1.78,0-3,.09A1.15,1.15,0,0,0,.42.45a1.85,1.85,0,0,0-.34.83A13.67,13.67,0,0,0,0,2.65V3.3A13.34,13.34,0,0,0,.08,4.66a1.87,1.87,0,0,0,.34.84,1.45,1.45,0,0,0,.93.37C2,5.93,4.23,6,4.23,6s1.78,0,3-.09A1.2,1.2,0,0,0,8,5.5a1.87,1.87,0,0,0,.34-.84A13.34,13.34,0,0,0,8.46,3.3V2.65a13.67,13.67,0,0,0-.08-1.37A1.85,1.85,0,0,0,8,.45,1.15,1.15,0,0,0,7.19.09C6,0,4.23,0,4.23,0Z"/></clipPath><linearGradient id="linear-gradient" x1="-190.99" y1="413.39" x2="-189.65" y2="413.39" gradientTransform="matrix(0, 4.43, 4.43, 0, -1826.81, 845.94)" gradientUnits="userSpaceOnUse"><stop offset="0" stop-color="#e42f28"/><stop offset="0.45" stop-color="#d12827"/><stop offset="1" stop-color="#bf2126"/></linearGradient></defs><title>youtube</title><g id="Camada_2" data-name="Camada 2"><g id="Layer_1" data-name="Layer 1"><g class="cls-2"><polygon class="cls-3" points="3.36 1.7 5.36 3.03 5.64 2.89 3.36 1.7"/></g><g class="cls-4"><rect class="cls-5" width="8.46" height="5.95"/></g></g></g></svg>